<svg width="333" height="76" viewBox="0 0 333 76" fill="none" xmlns="http://www.w3.org/2000/svg">
<path d="M18.5865 3.7828V5.33031H37.855C50.7007 5.33031 57.1236 5.15837 57.1236 4.81448C57.1236 4.81448 57.1236 4.72851 57.1236 4.55656C57.1236 4.38461 57.1236 4.24132 57.1236 4.12669C57.2373 3.89743 58.5446 3.7828 61.0455 3.7828H64.9674V11.8642C64.9674 17.1373 64.9106 20.2323 64.7969 21.1493C64.6832 21.9517 64.4843 22.7255 64.2001 23.4706C63.9159 24.2157 63.4896 24.8748 62.9212 25.448C62.3528 26.1357 61.7276 26.6516 61.0455 26.9955C60.2498 27.3394 59.454 27.5113 58.6583 27.5113L57.2941 27.6833V26.4796C57.2941 25.6772 57.2373 25.1041 57.1236 24.7602L56.9531 24.4163H40.9244V30.0905H64.2854V33.3575H40.9244L40.7538 34.733C40.7538 35.5354 40.5265 36.3952 40.0718 37.3122L39.5602 38.5158H72.4702V41.7828H0V38.5158H33.9331V33.3575H9.20798V30.0905H33.9331V24.4163H17.7339L16.7108 25.448C16.1424 26.1357 15.4603 26.6516 14.6646 26.9955C13.9825 27.3394 13.1867 27.5113 12.2773 27.5113L11.0837 27.6833L10.9132 16.1629C10.9132 8.48265 10.9132 4.49924 10.9132 4.21267C10.9132 3.92609 12.2205 3.7828 14.8351 3.7828H18.5865ZM25.9188 9.8009L26.2598 11.3484C26.4872 12.2655 26.9987 13.5264 27.7945 15.1312C28.4765 16.6214 29.1018 17.7677 29.6702 18.5701C30.1249 19.4872 30.3238 20.0317 30.267 20.2036C30.2101 20.3756 30.0112 20.4042 29.6702 20.2896C29.3291 20.2896 28.7607 20.0603 27.965 19.6018C27.0556 19.1433 26.0893 18.3982 25.0662 17.3665C23.9294 16.3348 23.1336 15.3032 22.6789 14.2715C22.1105 13.2398 21.7126 12.3228 21.4853 11.5204C21.1443 10.7179 20.9737 10.2021 20.9737 9.97285C20.9737 9.85822 21.8263 9.8009 23.5315 9.8009H25.9188ZM50.9849 9.8009C52.5764 9.8009 53.3722 9.91553 53.3722 10.1448C53.3722 10.3741 53.1733 11.0332 52.7754 12.1222C52.3775 13.2112 51.9228 14.1569 51.4112 14.9593C50.8997 15.7617 50.246 16.5641 49.4503 17.3665C48.6545 18.1689 47.9156 18.7707 47.2335 19.1719C46.5515 19.5732 45.8978 19.8884 45.2726 20.1176C44.6473 20.3469 44.2779 20.4042 44.1642 20.2896C44.0505 20.175 44.3916 19.3725 45.1873 17.8824C45.9831 16.6214 46.6651 15.2459 47.2335 13.7557C47.8019 12.4947 48.143 11.5204 48.2566 10.8326L48.5977 9.8009H50.9849ZM39.7307 44.19C39.3897 43.6169 39.276 43.2157 39.3897 42.9864C39.5034 42.7572 39.816 42.7285 40.3275 42.9004C40.8391 43.0724 41.4359 43.3303 42.118 43.6742C42.8001 44.0181 43.4253 44.4193 43.9937 44.8778C44.5621 45.2217 45.1305 45.7376 45.6989 46.4253C46.2673 46.9985 46.7788 47.629 47.2335 48.3167C47.8019 49.1192 48.143 49.6923 48.2566 50.0362L48.5977 50.724L46.722 52.7873C45.3578 54.0483 44.6473 54.6787 44.5905 54.6787C44.5337 54.6787 44.3916 54.2775 44.1642 53.4751C43.8232 52.5581 43.4253 51.4691 42.9706 50.2081C42.4022 48.9472 41.8338 47.7436 41.2654 46.5973C40.5833 45.451 40.0718 44.6486 39.7307 44.19ZM22.8494 45.0498C22.281 44.0181 21.9968 43.3876 21.9968 43.1584C21.9968 42.9291 22.1389 42.8145 22.4231 42.8145C22.7073 42.8145 23.3041 43.0437 24.2136 43.5023C25.2367 43.9608 26.0893 44.4766 26.7714 45.0498C27.5671 45.6229 28.306 46.3107 28.9881 47.1131C29.6702 47.9155 30.1817 48.7179 30.5228 49.5204L31.2048 50.724L30.5228 51.4118C30.1817 51.8703 29.5565 52.5581 28.6471 53.4751C27.8513 54.2775 27.3966 54.6787 27.2829 54.6787C27.1692 54.6787 26.9419 54.0483 26.6008 52.7873C26.1461 51.641 25.5777 50.2655 24.8957 48.6606C23.9862 47.0558 23.3041 45.8522 22.8494 45.0498ZM57.4646 44.5339C56.8962 43.7315 56.6689 43.2443 56.7826 43.0724C56.8962 42.9005 57.0667 42.8145 57.2941 42.8145C57.5215 42.8145 58.0899 43.0437 58.9993 43.5023C60.0224 43.9608 60.875 44.4766 61.5571 45.0498C62.4665 45.6229 63.2338 46.3394 63.8591 47.1991C64.4843 48.0588 64.9674 48.8326 65.3085 49.5204L65.9905 50.724L61.8981 54.8507L61.3865 52.7873C60.9318 51.5264 60.3066 50.0362 59.5108 48.3167C58.6014 46.4827 57.9193 45.2217 57.4646 44.5339ZM8.86695 43.5023C8.98062 43.273 10.0606 43.1584 12.1068 43.1584C14.153 43.1584 15.1761 43.2157 15.1761 43.3303C15.1761 43.5596 15.0056 44.2474 14.6646 45.3937C14.3235 46.4253 13.9257 47.3424 13.4709 48.1448C13.1299 48.8326 12.732 49.5777 12.2773 50.3801C11.7089 51.1825 10.9984 52.0136 10.1458 52.8733C9.29324 53.733 8.41223 54.4495 7.5028 55.0226C6.59337 55.5958 5.68394 56.0543 4.77451 56.3982C3.97876 56.7421 3.52404 56.8567 3.41036 56.7421C3.29668 56.7421 3.23985 56.6274 3.23985 56.3982C3.23985 56.1689 3.52404 55.5385 4.09244 54.5068C4.88819 53.2459 5.6271 51.9276 6.30917 50.552C6.99125 48.9472 7.5028 47.6863 7.84384 46.7692C8.18487 45.8522 8.46907 45.1071 8.69643 44.5339C8.81011 44.0754 8.86695 43.7315 8.86695 43.5023ZM40.7538 50.3801V59.3213H61.5571V62.4163H40.7538L40.5833 64.4796C40.5833 65.9698 40.4128 67.0588 40.0718 67.7466C40.0718 67.8612 40.0149 68.0618 39.9013 68.3484C39.7876 68.635 39.7307 68.7783 39.7307 68.7783C39.7307 68.8929 44.6758 68.9502 54.5658 68.9502H69.4009V72.0453L36.1499 72.2172H2.72829V68.9502H33.7626V62.4163H10.7426V59.3213H33.7626V50.3801H40.7538ZM18.5865 21.1493H26.2598L33.9331 21.3213V8.76923H18.5865V21.1493ZM40.9244 21.1493H57.1236V8.76923H40.9244V21.1493Z" fill="#614E3C"/>
<path d="M105.074 1.37556C105.074 1.26093 106.353 1.20362 108.911 1.20362C111.469 1.20362 112.748 1.26093 112.748 1.37556C112.748 1.49019 112.293 2.92307 111.384 5.67421C110.474 8.42534 110.02 9.85822 110.02 9.97285C110.02 9.97285 110.304 10.0875 110.872 10.3167C111.441 10.4314 112.293 10.6606 113.43 11.0045C114.567 11.3484 115.76 11.8069 117.011 12.3801C118.148 12.9532 119.284 13.641 120.421 14.4434C121.785 15.3605 122.922 16.2202 123.831 17.0226C124.741 17.825 125.423 18.5128 125.878 19.086L126.389 19.7738L124.002 22.009L121.785 24.0724L120.933 23.0407C120.251 22.1237 119.625 21.2639 119.057 20.4615C118.261 19.6591 117.409 18.8567 116.499 18.0543C115.59 17.2519 114.737 16.5641 113.941 15.9909C112.918 15.3032 111.952 14.73 111.043 14.2715C109.906 13.6983 109.224 13.4118 108.996 13.4118C108.883 13.4118 108.485 14.1569 107.803 15.6471C107.121 17.2519 106.325 18.6848 105.416 19.9457C104.733 21.092 103.824 22.4103 102.687 23.9005C101.664 25.1614 100.499 26.4223 99.1916 27.6833C97.8843 28.9442 96.7191 29.9759 95.696 30.7783C94.7866 31.4661 93.7066 32.2685 92.4561 33.1855C91.2057 33.9879 90.0689 34.6757 89.0458 35.2489L87.3406 36.1086V34.2172L89.3868 32.3258C90.751 30.9502 91.8878 29.6893 92.7972 28.543C93.8203 27.1674 94.8434 25.7345 95.8665 24.2443C97.0033 22.5249 97.9696 20.8627 98.7653 19.2579C99.5611 17.5385 100.812 14.1569 102.517 9.11312C103.995 4.41327 104.847 1.83409 105.074 1.37556ZM144.635 2.06335V2.57918C144.635 2.92307 144.521 3.55354 144.294 4.47059C144.066 5.50226 143.782 6.36199 143.441 7.04977C143.1 7.85218 142.588 8.53997 141.906 9.11312C141.224 9.68627 140.571 10.0875 139.945 10.3167C139.32 10.546 138.667 10.6606 137.984 10.6606L137.132 10.4887L136.961 6.19004V2.06335H144.635ZM134.574 8.59728V9.8009L134.745 11.0045H149.239V9.11312H156.912L156.741 19.9457C156.741 27.1674 156.571 31.2368 156.23 32.1538C156.003 33.0709 155.662 33.9879 155.207 34.905C154.752 35.822 154.212 36.6244 153.587 37.3122C152.962 38 152.479 38.4012 152.138 38.5158C151.796 38.7451 151.228 38.8597 150.432 38.8597H149.239V14.4434H134.574V24.5882C134.574 31.3514 134.489 35.3062 134.318 36.4525C134.148 37.5988 133.835 38.6878 133.381 39.7195C132.926 40.8658 132.698 41.4962 132.698 41.6109C132.698 41.6109 133.494 41.6395 135.086 41.6968C136.677 41.7541 139.121 41.7828 142.418 41.7828H152.308V41.267C152.308 41.0377 153.558 40.9231 156.059 40.9231H159.811L159.64 53.6471V66.543L159.129 67.9186C158.788 69.0649 158.447 69.9819 158.106 70.6697C157.651 71.4721 157.111 72.2459 156.486 72.991C155.86 73.7361 155.349 74.1946 154.951 74.3665C154.553 74.5385 154.013 74.6244 153.331 74.6244H152.308V45.0498H139.86C131.562 44.9351 127.356 44.8205 127.242 44.7059C127.128 44.5913 127.071 38.5732 127.071 26.6516C127.071 14.73 127.128 8.71191 127.242 8.59728C127.356 8.48265 128.606 8.48265 130.993 8.59728H134.574ZM137.643 19.6018C137.984 19.6018 138.667 19.9457 139.69 20.6335C140.826 21.092 141.85 21.6652 142.759 22.3529C143.555 22.9261 144.379 23.6712 145.232 24.5882C146.084 25.5053 146.738 26.365 147.192 27.1674C147.647 28.0845 147.931 28.7149 148.045 29.0588C148.045 29.2881 147.931 29.5173 147.704 29.7466C147.477 29.9759 146.738 30.549 145.487 31.4661C143.782 32.6124 142.901 33.1855 142.844 33.1855C142.787 33.1855 142.333 32.1538 141.48 30.0905C140.628 28.0271 139.832 26.2217 139.093 24.6742C138.354 23.1267 137.757 22.0664 137.302 21.4932C136.848 20.8054 136.734 20.3182 136.961 20.0317C137.189 19.7451 137.416 19.6018 137.643 19.6018ZM104.563 40.9231L104.733 41.9548V42.9864H114.112V40.9231H121.444V51.9276C121.444 59.264 121.302 63.448 121.018 64.4796C120.734 65.5113 120.364 66.5143 119.91 67.4887C119.455 68.463 118.83 69.3514 118.034 70.1538L116.84 71.3575H114.112V65.8552H103.71L103.369 66.8869C103.142 67.5747 102.744 68.3198 102.176 69.1222C101.607 69.9246 101.067 70.5264 100.556 70.9276C100.044 71.3288 99.3337 71.4721 98.4243 71.3575H97.2307V56.3982C97.117 46.3107 97.0886 41.181 97.1454 41.0091C97.2022 40.8371 98.4811 40.8084 100.982 40.9231H104.563ZM104.733 46.2534V54.1629C104.733 59.3213 104.677 62.0724 104.563 62.4163L104.392 62.7602H114.112V46.2534H104.733ZM150.262 53.819V57.086H123.831V55.7104C123.718 54.7934 123.718 54.2202 123.831 53.9909C123.945 53.8763 128.379 53.819 137.132 53.819H150.262ZM120.421 31.81H99.9589V28.7149H120.421V31.81Z" fill="#614E3C"/>
<path d="M227.542 1.37556V9.45701H243.4V12.724H227.712L227.542 14.2715C227.314 15.1885 227.002 16.1629 226.604 17.1946C226.206 18.2262 225.78 19.086 225.325 19.7738L224.643 20.8054H245.958L245.787 24.0724C245.674 26.2504 245.503 27.7979 245.276 28.7149C245.048 29.7466 244.707 30.6636 244.253 31.4661C243.798 32.4977 243.343 33.3002 242.888 33.8733C242.32 34.5611 241.78 35.0483 241.269 35.3348C240.757 35.6214 240.103 35.7647 239.308 35.7647H238.284V24.2443L219.016 24.0724H199.577V20.9774L209.978 20.8054H220.21V12.724H205.545V9.45701H220.21V5.50226C220.21 2.86576 220.266 1.49019 220.38 1.37556C220.494 1.26093 221.687 1.20362 223.961 1.20362L227.542 1.37556ZM230.1 24.7602L229.929 26.6516C229.815 28.1418 229.588 30.3198 229.247 33.1855C229.02 35.5928 228.679 38.6305 228.224 42.2986L227.712 46.7692L228.394 47.457L228.906 48.1448L237.943 48.3167H247.151V51.5837H239.478C234.476 51.5837 231.975 51.641 231.975 51.7557C231.975 51.8703 232.487 52.5581 233.51 53.819C234.419 54.8507 235.67 56.1689 237.261 57.7738C238.739 59.1493 239.819 60.1237 240.501 60.6968C241.411 61.27 242.15 61.7285 242.718 62.0724L243.571 62.5882V64.9955C243.571 66.6003 243.514 68.0332 243.4 69.2941C243.4 70.2112 243.372 70.7557 243.315 70.9276C243.258 71.0995 243.116 71.1855 242.888 71.1855C242.661 71.0709 241.922 70.6697 240.672 69.9819C239.535 69.1795 238.455 68.3771 237.432 67.5747C236.295 66.6576 235.215 65.6259 234.192 64.4796C232.942 63.2187 231.975 62.1297 231.293 61.2127C230.497 60.0664 229.702 58.9201 228.906 57.7738C228.224 56.6274 227.542 55.4238 226.86 54.1629C226.291 52.902 225.95 52.2715 225.837 52.2715C225.723 52.2715 225.439 52.6154 224.984 53.3032C224.529 53.9909 223.734 54.9653 222.597 56.2262C221.687 57.3726 220.579 58.5189 219.272 59.6652C217.964 60.8115 216.742 61.7858 215.606 62.5882C214.582 63.3906 213.275 64.365 211.684 65.5113C211.115 65.8552 210.547 66.2278 209.978 66.629C209.41 67.0302 208.813 67.4027 208.188 67.7466C207.563 68.0905 207.023 68.4344 206.568 68.7783C205.09 69.6953 202.987 70.8416 200.259 72.2172C197.644 73.7074 196.309 74.4525 196.252 74.4525C196.195 74.4525 196.053 74.1946 195.825 73.6787C195.598 73.1629 195.541 72.905 195.655 72.905C195.655 72.905 195.712 72.8477 195.825 72.733C195.939 72.6184 196.138 72.5038 196.422 72.3891C196.706 72.2745 196.962 72.1026 197.19 71.8733C198.326 71.1855 199.35 70.5551 200.259 69.9819C201.509 69.1795 202.646 68.3771 203.669 67.5747C204.92 66.543 206.17 65.454 207.421 64.3077C208.785 63.1614 209.865 62.1297 210.661 61.2127C211.115 60.8688 212.025 59.8944 213.389 58.2896C214.298 57.2579 215.094 56.2836 215.776 55.3665C216.344 54.4495 216.856 53.5897 217.311 52.7873L217.993 51.5837H198.383L198.042 52.7873C197.815 53.4751 197.474 54.2202 197.019 55.0226C196.678 55.7104 196.223 56.5128 195.655 57.4299C195.2 58.1176 194.518 58.9201 193.609 59.8371C192.813 60.7541 191.847 61.6712 190.71 62.5882C189.573 63.3906 188.379 64.1357 187.129 64.8235C185.765 65.5113 184.855 65.8552 184.401 65.8552L183.719 66.0272V29.9186H174.681V26.6516H191.562L191.392 41.7828C191.392 51.7557 191.449 56.7421 191.562 56.7421C191.562 56.7421 192.245 56.2262 193.609 55.1946C194.859 54.1629 195.769 53.3032 196.337 52.6154L197.36 51.5837H194.12V48.3167H219.357L219.869 46.7692C220.096 45.8522 220.323 44.4766 220.551 42.6425C220.892 40.8084 221.119 39.089 221.233 37.4842C221.346 36.6817 221.517 35.0196 221.744 32.4977C221.972 31.0075 222.142 29.4027 222.256 27.6833C222.369 25.9638 222.455 25.0468 222.512 24.9321C222.568 24.8175 223.847 24.7602 226.348 24.7602H230.1ZM209.126 27.1674C210.717 27.282 211.911 27.3967 212.707 27.5113C213.616 27.7406 214.526 28.0271 215.435 28.371C216.231 28.7149 216.97 29.0588 217.652 29.4027C218.334 29.7466 219.016 30.2624 219.698 30.9502C220.266 31.5234 220.636 31.9532 220.806 32.2398C220.977 32.5264 220.323 33.5294 218.845 35.2489L216.629 38L215.947 36.4525C215.378 35.3062 214.696 34.2745 213.9 33.3575C213.218 32.4404 212.423 31.638 211.513 30.9502C210.49 30.1478 209.751 29.632 209.296 29.4027C208.842 28.9442 208.273 28.6003 207.591 28.371C207.023 28.0271 206.739 27.7119 206.739 27.4253C206.739 27.1388 207.534 27.0528 209.126 27.1674ZM202.817 35.7647C203.84 35.7647 204.636 35.822 205.204 35.9366C205.772 36.0513 206.682 36.3379 207.932 36.7964C208.955 37.1403 209.865 37.5415 210.661 38C211.343 38.3439 212.252 38.9744 213.389 39.8914C214.526 40.6938 215.549 41.5535 216.458 42.4706C217.481 43.5023 217.936 44.0754 217.822 44.19C217.709 44.3047 216.629 44.7632 214.582 45.5656C212.536 46.4827 211.399 46.9985 211.172 47.1131C211.058 47.1131 210.717 46.8265 210.149 46.2534C209.694 45.5656 208.955 44.5913 207.932 43.3303C206.795 42.184 205.687 41.1523 204.607 40.2353C203.527 39.3182 202.589 38.5732 201.794 38C201.112 37.6561 200.486 37.3695 199.918 37.1403C199.349 36.911 199.065 36.7391 199.065 36.6244C199.065 36.5098 199.122 36.3379 199.236 36.1086C199.35 35.994 199.776 35.8793 200.515 35.7647C201.254 35.6501 202.021 35.6501 202.817 35.7647ZM193.097 8.59728V10.1448H186.106L179.285 10.3167V6.87783H193.268L193.097 8.59728Z" fill="#614E3C"/>
<path d="M300.559 0V18.2262H314.2V17.3665L314.371 16.6787H321.703V24.9321C321.703 30.4344 321.646 33.5867 321.533 34.3891C321.419 35.4208 321.192 36.2805 320.851 36.9683C320.51 37.6561 320.339 38.0573 320.339 38.1719C320.453 38.2866 322.272 38.3439 325.796 38.3439H331.082V50.0362C331.082 53.2459 331.082 56.083 331.082 58.5475C331.082 61.0121 331.025 62.4163 330.911 62.7602C330.797 63.3333 330.599 63.9925 330.314 64.7376C330.03 65.4827 329.604 66.1991 329.035 66.8869C328.467 67.5747 327.842 68.0905 327.16 68.4344C326.478 68.7783 325.682 68.9502 324.772 68.9502H323.579V41.6109H300.559V55.3665C300.559 64.4223 300.445 69.4661 300.218 70.4977C299.991 71.5294 299.706 72.3318 299.365 72.905C299.024 73.4781 298.598 73.994 298.086 74.4525C297.575 74.911 297.035 75.2836 296.466 75.5701C295.898 75.8567 295.159 76 294.25 76H293.056V41.6109H263.556V38.3439L278.221 38.1719H292.886V29.9186L293.056 21.6652H281.631L270.377 21.4932L270.207 19.9457V18.2262H293.056V0H300.559ZM314.882 3.61086C315.451 3.72549 316.474 3.95475 317.952 4.29864C319.657 4.64253 321.021 4.98642 322.044 5.33031C323.295 5.78884 324.488 6.30467 325.625 6.87783C326.762 7.33635 327.728 7.85219 328.524 8.42534C329.433 8.99849 330.258 9.65762 330.996 10.4027C331.735 11.1478 332.275 11.8929 332.616 12.638C332.957 13.3831 333.071 13.813 332.957 13.9276C332.957 13.9276 332.872 13.9849 332.702 14.0995C332.531 14.2142 332.275 14.4434 331.934 14.7873C331.593 15.1312 331.252 15.4178 330.911 15.6471C329.547 16.7934 328.751 17.4811 328.524 17.7104C328.41 17.825 328.297 17.825 328.183 17.7104C328.069 17.5958 327.899 17.2519 327.671 16.6787C327.217 15.8763 326.705 15.0166 326.137 14.0995C325.455 13.1825 324.716 12.2655 323.92 11.3484C323.124 10.546 322.158 9.68627 321.021 8.76923C319.998 7.96682 318.861 7.1644 317.611 6.36199C316.247 5.55958 315.337 5.10105 314.882 4.98642C314.428 4.75716 314.2 4.47059 314.2 4.12669L314.03 3.61086H314.882ZM300.559 38.3439L307.38 38.1719H314.03L314.2 29.9186V21.6652H300.559V38.3439Z" fill="#614E3C"/>
</svg>
